<svg viewBox="0 0 33 33" xmlns:xlink="http://www.w3.org/1999/xlink" xmlns="http://www.w3.org/2000/svg" width="33" height="33" fill="none"><path fill="url(#a)" fill-rule="evenodd" d="M13.713 7.688c0-3.452 2.84-6.211 6.248-6.211 3.368 0 6.174 2.726 6.174 6.137a6.137 6.137 0 0 1-6.138 6.138h-2.47v4.84H19.9c3.45 0 6.235 2.812 6.235 6.248 0 3.423-2.774 6.223-6.21 6.223a6.21 6.21 0 0 1-6.212-6.21v-2.446h-2.47a6.235 6.235 0 1 1 0-12.47h2.47v-2.25zm3.815 2.25h2.47a2.323 2.323 0 0 0 2.322-2.324c0-1.262-1.055-2.323-2.359-2.323-1.345 0-2.433 1.094-2.433 2.397v2.25zm-3.814 3.813h-2.47a2.42 2.42 0 0 0 0 4.842h2.47v-4.841zm3.814 8.656v2.445a2.396 2.396 0 0 0 2.396 2.397 2.407 2.407 0 0 0 2.396-2.409 2.431 2.431 0 0 0-2.42-2.433h-2.372z" clip-rule="evenodd"/><path fill="url(#b)" fill-rule="evenodd" d="M19.9 18.593h-8.656a2.42 2.42 0 0 1 0-4.841h2.47V9.937h-2.47a6.235 6.235 0 0 0 0 12.47h8.68a2.431 2.431 0 0 1 2.396 2.433c0 1.33-1.08 2.409-2.396 2.409v3.814c3.437 0 6.21-2.8 6.21-6.223 0-3.436-2.784-6.247-6.234-6.247z" clip-rule="evenodd"/><path fill="url(#c)" d="M13.714 7.883h3.814v10.71h-3.814V7.883z"/><defs><linearGradient id="a" x1="21.978" x2="15.572" y1="2.357" y2="29.156" gradientUnits="userSpaceOnUse"><stop stop-color="#FA5AF9"/><stop offset="1" stop-color="#1B7BE8"/></linearGradient><linearGradient id="b" x1="23.788" x2="7.943" y1="21.967" y2="7.785" gradientUnits="userSpaceOnUse"><stop stop-color="#00D0B0" stop-opacity="0"/><stop offset=".494" stop-color="#00D0B0" stop-opacity=".911"/><stop offset=".615" stop-color="#00D0B0"/><stop offset="1" stop-color="#00D0B0" stop-opacity="0"/></linearGradient><linearGradient id="c" x1="14.631" x2="16.903" y1="10.72" y2="17.745" gradientUnits="userSpaceOnUse"><stop stop-color="#2F59EC" stop-opacity="0"/><stop offset="1" stop-color="#2F59EC"/></linearGradient></defs></svg>