<svg viewBox="0 0 34 34" xmlns:xlink="http://www.w3.org/1999/xlink" xmlns="http://www.w3.org/2000/svg" width="34" height="34" fill="none"><path fill="#00C29C" d="M1.87 11.758c.082-.402.135-.812.25-1.205.435-1.48 1.39-2.585 2.64-3.463 1.33-.935 2.823-1.522 4.375-1.98 1.482-.439 3.003-.697 4.527-.94 1.912-.304 3.823-.614 5.735-.922l1.744-.279-3.067 9.867a6.61 6.61 0 0 0 1.742-.596c3.136-1.592 5.108-4.071 5.82-7.502.04-.186.028-.427.143-.538.112-.108.356-.084.543-.114 1.821-.298 3.643-.594 5.465-.89.095-.016.192-.026.342-.045-.048.503-.065.99-.144 1.465-.588 3.513-2.54 6.148-5.428 8.17a14.078 14.078 0 0 1-2.614 1.438c-.188.08-.25.165-.233.38.22 2.806 1.04 5.455 2.153 8.026.772 1.786 1.682 3.498 2.864 5.059.103.136.21.269.328.421l-1.813.856-4.526 2.134c-.057.027-.106.073-.158.11h-.09c-.014-.04-.02-.085-.04-.122a12.29 12.29 0 0 1-1.002-2.448c-.683-2.286-1.004-4.634-1.175-7.002-.132-1.834-.187-3.674-.274-5.511-.01-.213-.002-.427-.002-.639-.083 0-.13-.004-.174 0-.811.095-1.622.196-2.434.28-.18.018-.256.084-.307.25-1 3.238-2.007 6.472-3.006 9.71-.052.17-.117.234-.307.233-1.788-.008-3.576-.005-5.364-.005h-.247L14.09 6.522c-.115.015-.183.016-.247.033-.719.203-1.452.368-2.152.62-1.264.457-2.385 1.143-3.222 2.21-.664.847-1.028 1.793-.871 2.884.102.71.367 1.372.691 2.008.193.377.416.74.632 1.118l-4.423 3.247c-.04-.037-.064-.056-.083-.078-1.115-1.26-1.919-2.683-2.31-4.318-.103-.434-.158-.88-.235-1.32v-1.168z"/></svg>