<svg xmlns="http://www.w3.org/2000/svg" xmlns:xlink="http://www.w3.org/1999/xlink" width="500" zoomAndPan="magnify" viewBox="0 0 375 374.999991" height="500" preserveAspectRatio="xMidYMid meet" version="1.0"><defs><g/></defs><rect x="-37.5" width="450" fill="#ffffff" y="-37.499999" height="449.999989" fill-opacity="1"/><rect x="-37.5" width="450" fill="#ffffff" y="-37.499999" height="449.999989" fill-opacity="1"/><g fill="#02a9f7" fill-opacity="1"><g transform="translate(211.724458, 133.605459)"><g><path d="M -90.90625 68.078125 C -89.175781 64.878906 -86.742188 62.507812 -83.609375 60.96875 C -80.472656 59.4375 -77.035156 58.535156 -73.296875 58.265625 C -69.554688 58.003906 -65.78125 58.070312 -61.96875 58.46875 C -58.164062 58.875 -54.734375 59.34375 -51.671875 59.875 C -50.734375 60.144531 -49.828125 60.34375 -48.953125 60.46875 C -48.085938 60.601562 -47.1875 60.738281 -46.25 60.875 C -46.519531 59.675781 -46.785156 58.472656 -47.046875 57.265625 C -47.316406 56.066406 -47.519531 54.9375 -47.65625 53.875 C -48.59375 48.925781 -49.492188 43.984375 -50.359375 39.046875 C -51.234375 34.109375 -51.9375 29.171875 -52.46875 24.234375 C -52.726562 21.828125 -52.789062 19.390625 -52.65625 16.921875 C -52.53125 14.453125 -52.132812 12.082031 -51.46875 9.8125 C -50.53125 6.476562 -48.523438 3.40625 -45.453125 0.59375 C -44.390625 -0.332031 -42.957031 -1.097656 -41.15625 -1.703125 C -39.351562 -2.304688 -37.847656 -1.875 -36.640625 -0.40625 C -35.578125 1.0625 -34.941406 2.695312 -34.734375 4.5 C -34.535156 6.300781 -34.304688 8.070312 -34.046875 9.8125 C -33.910156 11.007812 -33.738281 12.242188 -33.53125 13.515625 C -33.332031 14.785156 -33.171875 16.085938 -33.046875 17.421875 C -32.109375 20.628906 -31.304688 24.035156 -30.640625 27.640625 C -30.773438 26.566406 -30.90625 25.53125 -31.03125 24.53125 C -31.164062 23.53125 -31.300781 22.492188 -31.4375 21.421875 C -31.707031 19.691406 -31.941406 17.957031 -32.140625 16.21875 C -32.335938 14.476562 -32.570312 12.742188 -32.84375 11.015625 C -32.976562 9.679688 -33.144531 8.3125 -33.34375 6.90625 C -33.539062 5.507812 -33.441406 4.207031 -33.046875 3 C -33.046875 2.863281 -32.976562 2.863281 -32.84375 3 C -32.039062 4.207031 -31.570312 5.644531 -31.4375 7.3125 C -31.300781 8.976562 -31.101562 10.476562 -30.84375 11.8125 L -29.03125 22.234375 C -28.5 25.703125 -27.96875 29.132812 -27.4375 32.53125 C -26.90625 35.9375 -26.367188 39.378906 -25.828125 42.859375 C -25.160156 46.992188 -24.523438 51.128906 -23.921875 55.265625 C -23.328125 59.410156 -22.695312 63.550781 -22.03125 67.6875 C -15.625 70.21875 -9.484375 73.019531 -3.609375 76.09375 C -3.472656 76.226562 -3.472656 76.363281 -3.609375 76.5 C -3.742188 76.632812 -3.875 76.632812 -4 76.5 C -6.9375 75.164062 -9.90625 73.863281 -12.90625 72.59375 C -15.914062 71.320312 -18.890625 70.15625 -21.828125 69.09375 C -21.691406 69.757812 -21.554688 70.359375 -21.421875 70.890625 C -21.285156 71.421875 -21.15625 71.953125 -21.03125 72.484375 C -18.757812 73.421875 -16.519531 74.390625 -14.3125 75.390625 C -12.113281 76.390625 -9.878906 77.359375 -7.609375 78.296875 C -5.472656 79.367188 -4.132812 81.171875 -3.59375 83.703125 C -3.0625 86.242188 -3.332031 88.445312 -4.40625 90.3125 C -5.34375 91.78125 -6.8125 92.976562 -8.8125 93.90625 C -10.8125 94.84375 -12.679688 94.976562 -14.421875 94.3125 L -15.625 93.71875 C -14.414062 98.125 -13.144531 102.53125 -11.8125 106.9375 C -10.476562 111.34375 -9.078125 115.679688 -7.609375 119.953125 C -7.078125 121.679688 -7.273438 123.25 -8.203125 124.65625 C -9.140625 126.0625 -10.34375 127.03125 -11.8125 127.5625 C -11.675781 128.5 -11.84375 129.300781 -12.3125 129.96875 C -12.78125 130.632812 -13.28125 131.234375 -13.8125 131.765625 C -17.15625 134.035156 -20.796875 134.800781 -24.734375 134.0625 C -28.671875 133.332031 -32.238281 132.164062 -35.4375 130.5625 C -38.78125 128.820312 -42.019531 126.984375 -45.15625 125.046875 C -48.289062 123.117188 -51.394531 121.15625 -54.46875 119.15625 C -60.738281 115.007812 -66.84375 110.566406 -72.78125 105.828125 C -78.726562 101.085938 -84.570312 96.179688 -90.3125 91.109375 C -91.914062 89.773438 -92.582031 88.242188 -92.3125 86.515625 C -93.519531 84.503906 -94.320312 82.5 -94.71875 80.5 C -95.113281 77.695312 -94.941406 75.289062 -94.203125 73.28125 C -93.472656 71.28125 -92.375 69.546875 -90.90625 68.078125 Z M -66.890625 89.515625 C -63.953125 91.242188 -61.046875 92.941406 -58.171875 94.609375 C -55.304688 96.285156 -52.40625 97.925781 -49.46875 99.53125 C -47.320312 100.59375 -45.113281 101.691406 -42.84375 102.828125 C -40.582031 103.960938 -38.316406 105 -36.046875 105.9375 C -37.109375 102.195312 -38.109375 98.390625 -39.046875 94.515625 C -39.984375 90.640625 -40.851562 86.769531 -41.65625 82.90625 C -46.0625 81.4375 -50.332031 80.234375 -54.46875 79.296875 C -57.800781 78.628906 -61.171875 78.128906 -64.578125 77.796875 C -67.984375 77.460938 -71.351562 77.429688 -74.6875 77.703125 C -75.351562 77.703125 -76.050781 77.734375 -76.78125 77.796875 C -77.519531 77.859375 -78.160156 77.957031 -78.703125 78.09375 L -80.296875 78.5 C -80.035156 79.03125 -79.769531 79.429688 -79.5 79.703125 C -78.164062 81.835938 -76.296875 83.671875 -73.890625 85.203125 C -71.484375 86.742188 -69.148438 88.179688 -66.890625 89.515625 Z M -56.46875 62.671875 C -54.738281 62.941406 -52.9375 63.242188 -51.0625 63.578125 C -49.195312 63.910156 -47.328125 64.28125 -45.453125 64.6875 C -45.585938 64.414062 -45.65625 64.144531 -45.65625 63.875 C -45.65625 63.613281 -45.722656 63.347656 -45.859375 63.078125 C -46.253906 62.941406 -46.617188 62.835938 -46.953125 62.765625 C -47.285156 62.703125 -47.65625 62.671875 -48.0625 62.671875 C -51.9375 62.140625 -55.90625 61.640625 -59.96875 61.171875 C -64.039062 60.703125 -68.015625 60.671875 -71.890625 61.078125 L -79.5 62.28125 C -79.5 62.414062 -78.796875 62.414062 -77.390625 62.28125 C -75.992188 62.144531 -75.296875 62.144531 -75.296875 62.28125 C -71.953125 61.875 -68.613281 61.738281 -65.28125 61.875 C -61.945312 62.007812 -59.007812 62.273438 -56.46875 62.671875 Z M -46.453125 27.4375 C -46.722656 24.09375 -46.820312 20.6875 -46.75 17.21875 C -46.6875 13.75 -45.851562 10.476562 -44.25 7.40625 L -44.65625 6.8125 C -45.457031 7.207031 -46.125 7.671875 -46.65625 8.203125 C -48.125 11.273438 -48.757812 14.476562 -48.5625 17.8125 C -48.363281 21.15625 -47.929688 24.492188 -47.265625 27.828125 L -46.0625 34.046875 C -45.925781 33.910156 -45.921875 33.441406 -46.046875 32.640625 C -46.179688 31.835938 -46.1875 31.4375 -46.0625 31.4375 Z M -46.453125 27.4375 "/></g></g></g><g fill="#02a9f7" fill-opacity="1"><g transform="translate(158.453712, 261.48167)"><g><path d="M 91.375 -68.4375 C 89.632812 -65.21875 87.1875 -62.832031 84.03125 -61.28125 C 80.882812 -59.738281 77.429688 -58.832031 73.671875 -58.5625 C 69.910156 -58.300781 66.117188 -58.367188 62.296875 -58.765625 C 58.472656 -59.171875 55.019531 -59.644531 51.9375 -60.1875 C 50.988281 -60.445312 50.078125 -60.644531 49.203125 -60.78125 C 48.335938 -60.914062 47.4375 -61.050781 46.5 -61.1875 C 46.769531 -59.976562 47.035156 -58.769531 47.296875 -57.5625 C 47.566406 -56.351562 47.769531 -55.210938 47.90625 -54.140625 C 48.84375 -49.179688 49.75 -44.21875 50.625 -39.25 C 51.5 -34.28125 52.203125 -29.316406 52.734375 -24.359375 C 53.003906 -21.941406 53.070312 -19.488281 52.9375 -17 C 52.800781 -14.519531 52.398438 -12.140625 51.734375 -9.859375 C 50.796875 -6.503906 48.78125 -3.421875 45.6875 -0.609375 C 44.613281 0.335938 43.171875 1.109375 41.359375 1.703125 C 39.546875 2.304688 38.035156 1.875 36.828125 0.40625 C 35.753906 -1.070312 35.117188 -2.71875 34.921875 -4.53125 C 34.722656 -6.34375 34.488281 -8.117188 34.21875 -9.859375 C 34.082031 -11.066406 33.910156 -12.304688 33.703125 -13.578125 C 33.503906 -14.859375 33.34375 -16.171875 33.21875 -17.515625 C 32.269531 -20.734375 31.460938 -24.15625 30.796875 -27.78125 C 30.929688 -26.707031 31.066406 -25.664062 31.203125 -24.65625 C 31.335938 -23.644531 31.46875 -22.601562 31.59375 -21.53125 C 31.863281 -19.789062 32.097656 -18.046875 32.296875 -16.296875 C 32.503906 -14.554688 32.742188 -12.816406 33.015625 -11.078125 C 33.148438 -9.734375 33.316406 -8.351562 33.515625 -6.9375 C 33.710938 -5.53125 33.613281 -4.222656 33.21875 -3.015625 C 33.21875 -2.878906 33.148438 -2.878906 33.015625 -3.015625 C 32.203125 -4.222656 31.726562 -5.664062 31.59375 -7.34375 C 31.46875 -9.019531 31.269531 -10.53125 31 -11.875 L 29.1875 -22.34375 C 28.644531 -25.832031 28.101562 -29.285156 27.5625 -32.703125 C 27.03125 -36.128906 26.5 -39.585938 25.96875 -43.078125 C 25.289062 -47.234375 24.648438 -51.390625 24.046875 -55.546875 C 23.441406 -59.710938 22.804688 -63.875 22.140625 -68.03125 C 15.703125 -70.582031 9.53125 -73.398438 3.625 -76.484375 C 3.488281 -76.617188 3.488281 -76.753906 3.625 -76.890625 C 3.757812 -77.023438 3.894531 -77.023438 4.03125 -76.890625 C 6.976562 -75.546875 9.960938 -74.234375 12.984375 -72.953125 C 16.003906 -71.679688 18.988281 -70.507812 21.9375 -69.4375 C 21.800781 -70.113281 21.664062 -70.71875 21.53125 -71.25 C 21.394531 -71.789062 21.265625 -72.328125 21.140625 -72.859375 C 18.859375 -73.796875 16.609375 -74.769531 14.390625 -75.78125 C 12.179688 -76.789062 9.9375 -77.765625 7.65625 -78.703125 C 5.5 -79.773438 4.148438 -81.582031 3.609375 -84.125 C 3.078125 -86.675781 3.347656 -88.894531 4.421875 -90.78125 C 5.367188 -92.25 6.847656 -93.453125 8.859375 -94.390625 C 10.867188 -95.335938 12.75 -95.472656 14.5 -94.796875 L 15.703125 -94.203125 C 14.492188 -98.628906 13.21875 -103.054688 11.875 -107.484375 C 10.53125 -111.910156 9.125 -116.269531 7.65625 -120.5625 C 7.113281 -122.3125 7.3125 -123.890625 8.25 -125.296875 C 9.1875 -126.703125 10.394531 -127.675781 11.875 -128.21875 C 11.738281 -129.15625 11.90625 -129.957031 12.375 -130.625 C 12.84375 -131.300781 13.347656 -131.90625 13.890625 -132.4375 C 17.242188 -134.71875 20.898438 -135.488281 24.859375 -134.75 C 28.816406 -134.019531 32.40625 -132.847656 35.625 -131.234375 C 38.976562 -129.492188 42.234375 -127.648438 45.390625 -125.703125 C 48.546875 -123.753906 51.664062 -121.773438 54.75 -119.765625 C 61.050781 -115.597656 67.1875 -111.132812 73.15625 -106.375 C 79.132812 -101.613281 85.007812 -96.679688 90.78125 -91.578125 C 92.382812 -90.234375 93.054688 -88.691406 92.796875 -86.953125 C 94.003906 -84.941406 94.804688 -82.929688 95.203125 -80.921875 C 95.609375 -78.097656 95.441406 -75.679688 94.703125 -73.671875 C 93.960938 -71.660156 92.851562 -69.914062 91.375 -68.4375 Z M 67.234375 -89.96875 C 64.273438 -91.71875 61.351562 -93.429688 58.46875 -95.109375 C 55.582031 -96.785156 52.664062 -98.425781 49.71875 -100.03125 C 47.570312 -101.101562 45.359375 -102.207031 43.078125 -103.34375 C 40.796875 -104.488281 38.515625 -105.535156 36.234375 -106.484375 C 37.304688 -102.722656 38.3125 -98.894531 39.25 -95 C 40.1875 -91.113281 41.054688 -87.222656 41.859375 -83.328125 C 46.296875 -81.847656 50.59375 -80.640625 54.75 -79.703125 C 58.101562 -79.035156 61.488281 -78.53125 64.90625 -78.1875 C 68.332031 -77.851562 71.722656 -77.820312 75.078125 -78.09375 C 75.742188 -78.09375 76.445312 -78.125 77.1875 -78.1875 C 77.925781 -78.257812 78.566406 -78.363281 79.109375 -78.5 L 80.71875 -78.90625 C 80.445312 -79.4375 80.175781 -79.835938 79.90625 -80.109375 C 78.5625 -82.253906 76.679688 -84.097656 74.265625 -85.640625 C 71.859375 -87.179688 69.515625 -88.625 67.234375 -89.96875 Z M 56.765625 -63 C 55.015625 -63.269531 53.203125 -63.570312 51.328125 -63.90625 C 49.453125 -64.238281 47.570312 -64.609375 45.6875 -65.015625 C 45.820312 -64.742188 45.890625 -64.472656 45.890625 -64.203125 C 45.890625 -63.941406 45.957031 -63.675781 46.09375 -63.40625 C 46.5 -63.269531 46.867188 -63.164062 47.203125 -63.09375 C 47.535156 -63.03125 47.90625 -63 48.3125 -63 C 52.195312 -62.46875 56.1875 -61.960938 60.28125 -61.484375 C 64.375 -61.015625 68.367188 -60.984375 72.265625 -61.390625 L 79.90625 -62.59375 C 79.90625 -62.726562 79.203125 -62.726562 77.796875 -62.59375 C 76.390625 -62.457031 75.6875 -62.457031 75.6875 -62.59375 C 72.332031 -62.195312 68.972656 -62.0625 65.609375 -62.1875 C 62.253906 -62.320312 59.304688 -62.59375 56.765625 -63 Z M 46.703125 -27.578125 C 46.960938 -24.222656 47.0625 -20.800781 47 -17.3125 C 46.9375 -13.820312 46.097656 -10.535156 44.484375 -7.453125 L 44.890625 -6.84375 C 45.691406 -7.25 46.363281 -7.71875 46.90625 -8.25 C 48.375 -11.332031 49.007812 -14.550781 48.8125 -17.90625 C 48.613281 -21.269531 48.175781 -24.628906 47.5 -27.984375 L 46.296875 -34.21875 C 46.160156 -34.082031 46.160156 -33.609375 46.296875 -32.796875 C 46.429688 -31.992188 46.429688 -31.59375 46.296875 -31.59375 Z M 46.703125 -27.578125 "/></g></g></g></svg>