<svg viewBox="0 0 33 33" xmlns:xlink="http://www.w3.org/1999/xlink" xmlns="http://www.w3.org/2000/svg" width="33" height="33" fill="none"><g clip-path="url(#a)"><path fill="#000" fill-rule="evenodd" d="m28.43 10.167-.19-.336a2.812 2.812 0 0 0-1.014-.982l-9.191-5.204a2.78 2.78 0 0 0-1.37-.364h-.397a2.78 2.78 0 0 0-1.37.364L5.707 8.863c-.415.235-.76.574-1 .981l-.192.336a2.651 2.651 0 0 0-.37 1.345v10.423c.001.472.129.936.37 1.345l.192.336c.246.403.59.74 1 .981l9.205 5.205a2.66 2.66 0 0 0 1.37.363h.383c.481 0 .953-.126 1.37-.363l9.19-5.218c.42-.23.766-.57 1-.982l.206-.336a2.72 2.72 0 0 0 .37-1.345V11.512a2.658 2.658 0 0 0-.37-1.345zM16.269 5.97h.397l8.027 4.546-8.219 4.653-8.218-4.653 8.013-4.546zm1.575 20.845 8.013-4.546.205-.336v-9.09l-8.218 4.666v9.306z" clip-rule="evenodd"/><path fill="url(#b)" fill-rule="evenodd" d="m30.374 8.619.201.352a5.04 5.04 0 0 1 .692 2.537v10.446a5.105 5.105 0 0 1-.695 2.526l-.013.023-.203.332a5.024 5.024 0 0 1-1.908 1.865l-9.176 5.209h-.001c-.79.45-1.688.688-2.601.69h-.378a5.169 5.169 0 0 1-2.623-.693l-9.211-5.209-.02-.011a5.335 5.335 0 0 1-1.844-1.811l-.02-.032-.202-.354a5.04 5.04 0 0 1-.691-2.537V11.521a5.04 5.04 0 0 1 .691-2.537l.193-.337.009-.015a5.159 5.159 0 0 1 1.9-1.865l9.188-5.216.001-.001a5.279 5.279 0 0 1 2.601-.69h.406c.913.002 1.81.24 2.6.689l.002.002 9.19 5.203a5.257 5.257 0 0 1 1.895 1.836l.017.029zM18.035 3.645l9.191 5.204a2.83 2.83 0 0 1 1.014.982l.192.336a2.658 2.658 0 0 1 .37 1.345v10.422a2.719 2.719 0 0 1-.37 1.345l-.206.336c-.235.412-.58.752-1 .982l-9.19 5.218a2.777 2.777 0 0 1-1.37.363h-.384a2.674 2.674 0 0 1-1.37-.363l-9.204-5.204a2.892 2.892 0 0 1-1-.982l-.192-.336a2.651 2.651 0 0 1-.37-1.345V11.525a2.64 2.64 0 0 1 .37-1.345l.192-.336a2.693 2.693 0 0 1 1-.981l9.19-5.218a2.78 2.78 0 0 1 1.37-.363h.398c.48 0 .953.126 1.37.363zm6.657 6.872L16.666 5.97h-.398l-8.013 4.546 8.219 4.653 8.218-4.653zm-8.218 1.859 3.283-1.86-3.29-1.862-3.28 1.86 3.287 1.862zm1.37 5.134v9.306l8.012-4.546.206-.336v-9.09l-8.219 4.666zm5.752-.47-3.287 1.866v3.716l3.287-1.865V17.04z" clip-rule="evenodd"/><path fill="#fff" d="M16.268 5.97h.397l8.027 4.546-8.219 4.653-8.218-4.653 8.013-4.545zm9.588 16.3-8.013 4.546V17.51l8.218-4.667v9.091l-.205.336z"/></g><defs><linearGradient id="b" x1="1.681" x2="31.684" y1=".861" y2="3.92" gradientUnits="userSpaceOnUse"><stop stop-color="#FF7448"/><stop offset=".5" stop-color="#FF4848"/><stop offset="1" stop-color="#6248FF"/></linearGradient><clipPath id="a"><path fill="#fff" d="M1.68.592h29.586v32.276H1.68z"/></clipPath></defs></svg>