<svg viewBox="0 0 34 34" xmlns:xlink="http://www.w3.org/1999/xlink" xmlns="http://www.w3.org/2000/svg" width="34" height="34" fill="none"><g clip-path="url(#a)"><path fill="url(#b)" fill-rule="evenodd" d="M4.904 5.749a1.605 1.605 0 0 0 1.614 1.597h13.375c4.416-.3 7.122 5.332 3.766 8.316-.986.844-2.24 1.264-3.766 1.263h-5.81a1.599 1.599 0 1 0 0 3.195h6.42l5.78 9.18a1.704 1.704 0 0 0 1.507.832c1.474.05 2.152-1.48 1.345-2.661l-5.143-8.177c8.026-3.768 4.635-15.48-4.103-15.135H6.519a1.607 1.607 0 0 0-1.615 1.59z" clip-rule="evenodd"/></g><defs><linearGradient id="b" x1="17.192" x2="17.192" y1="4.151" y2="30.134" gradientUnits="userSpaceOnUse"><stop stop-color="#F45184"/><stop offset="1" stop-color="#DB469F"/></linearGradient><clipPath id="a"><path fill="#fff" d="M.777.772h32.276v32.276H.777z"/></clipPath></defs></svg>