<svg viewBox="0 0 33 34" xmlns:xlink="http://www.w3.org/1999/xlink" xmlns="http://www.w3.org/2000/svg" width="33" height="34" fill="none"><g clip-path="url(#a)"><rect width="26.897" height="26.897" x="3.026" y="3.642" fill="#FF3AF3" rx="13.448"/><mask id="b" width="27" height="28" x="3" y="3" maskUnits="userSpaceOnUse" style="mask-type:alpha"><path fill="#fff" d="M16.475 30.538c7.427 0 13.448-6.02 13.448-13.448 0-7.427-6.021-13.448-13.448-13.448-7.428 0-13.449 6.02-13.449 13.448 0 7.427 6.021 13.448 13.449 13.448z"/></mask><g mask="url(#b)"><g filter="url(#c)"><path fill="#FF3AF3" d="M24.193 8.09c3.405-2.224 7.146 2.102 9.977 3.675l6.1 18.942-19.75 11.695c-4.73-1.73-23.142-8.911-19.313-8.56 5.359.49 17.104 2.864 19.313-6.742 1.504-6.545-1.17-15.845 3.673-19.01z"/></g><g filter="url(#d)"><path fill="#4480FF" d="M23.984 8.458c3.404-2.224 7.146 2.101 9.977 3.674C35.6 7.335 38.813.32 33.59-.103c-7.922-.64-12.775-.943-18.539 7.247-6.047 8.593-2.932 16.718-8.662 15.605C.66 21.637-.542 8.526-2.61 3.1c-1.415 2.068-5.15 13.064-5.122 19.077.027 6.013 5.83 10.527 8.73 12.033 5.358.49 17.104 2.865 19.312-6.741 1.505-6.545-1.169-15.845 3.674-19.01z"/></g><g filter="url(#e)"><path fill="#FFC31D" d="M4.374 13.753c-1.95-.91-2.453-5.899-2.483-8.022-.06-2.528.548-7.644 3.46-7.887 2.913-.243 8.54 3.224 10.988 4.988-7.786 1.281-8.932 12.336-11.965 10.92z"/></g><g filter="url(#f)"><path fill="#FF3AF3" d="M11.944 7.884C8.74 13.192 7.674 19.932 5.12 19.218c-2.662-.743-2.836-6.13-3.09-11.253a24.078 24.078 0 0 1-.093-1.75c.035.575.065 1.16.094 1.75.218 2.457.855 5.788 2.383 6.525 2.913 1.406 4.08-9.115 11.096-11.077 4.612-4.866 11.35-9.974 14.05-11.766-1.894 3.326-7.143 10.546-13.212 11.578a8.243 8.243 0 0 0-.838.188c-1.472 1.553-2.728 3.082-3.566 4.47z"/></g><g filter="url(#g)"><path fill="#3AFFC5" d="M6.21 23.703C.082 22.49-1.204 8.213-3.415 2.305-3.908-.24-4.107-4.742-.964-2.393c3.93 2.936.407 20.277 5.552 21.691 2.74.754 3.882-6.361 7.318-11.965 3.713-6.056 15.068-14.644 18.89-17.14l4.506 8.625C26.83-1.879 21.639-2.209 15.475 6.71c-6.468 9.357-3.137 18.205-9.265 16.994z"/></g></g></g><defs><filter id="c" width="43.618" height="38.969" x="-1.331" y="5.45" color-interpolation-filters="sRGB" filterUnits="userSpaceOnUse"><feFlood flood-opacity="0" result="BackgroundImageFix"/><feBlend in="SourceGraphic" in2="BackgroundImageFix" result="shape"/><feGaussianBlur result="effect1_foregroundBlur_3715_6927" stdDeviation="1.009"/></filter><filter id="d" width="48.217" height="39.252" x="-9.75" y="-2.41" color-interpolation-filters="sRGB" filterUnits="userSpaceOnUse"><feFlood flood-opacity="0" result="BackgroundImageFix"/><feBlend in="SourceGraphic" in2="BackgroundImageFix" result="shape"/><feGaussianBlur result="effect1_foregroundBlur_3715_6927" stdDeviation="1.009"/></filter><filter id="e" width="22.521" height="24.115" x="-2.148" y="-6.203" color-interpolation-filters="sRGB" filterUnits="userSpaceOnUse"><feFlood flood-opacity="0" result="BackgroundImageFix"/><feBlend in="SourceGraphic" in2="BackgroundImageFix" result="shape"/><feGaussianBlur result="effect1_foregroundBlur_3715_6927" stdDeviation="2.017"/></filter><filter id="f" width="31.659" height="31.658" x="-.081" y="-10.37" color-interpolation-filters="sRGB" filterUnits="userSpaceOnUse"><feFlood flood-opacity="0" result="BackgroundImageFix"/><feBlend in="SourceGraphic" in2="BackgroundImageFix" result="shape"/><feGaussianBlur result="effect1_foregroundBlur_3715_6927" stdDeviation="1.009"/></filter><filter id="g" width="47.069" height="41.69" x="-7.733" y="-13.841" color-interpolation-filters="sRGB" filterUnits="userSpaceOnUse"><feFlood flood-opacity="0" result="BackgroundImageFix"/><feBlend in="SourceGraphic" in2="BackgroundImageFix" result="shape"/><feGaussianBlur result="effect1_foregroundBlur_3715_6927" stdDeviation="2.017"/></filter><clipPath id="a"><rect width="26.897" height="26.897" x="3.026" y="3.642" fill="#fff" rx="13.448"/></clipPath></defs></svg>