<svg viewBox="0 0 39 39" xmlns:xlink="http://www.w3.org/1999/xlink" xmlns="http://www.w3.org/2000/svg" width="39" height="39" fill="none"><g fill-rule="evenodd" clip-path="url(#a)" clip-rule="evenodd"><path fill="url(#b)" d="m30.093 30.36 6.527-19.427c.512-1.523-.352-3.162-1.927-3.657-1.575-.494-3.27.34-3.781 1.863l-6.527 19.427c-.512 1.523.352 3.162 1.926 3.657 1.575.495 3.27-.34 3.782-1.863z"/><path fill="url(#c)" d="m30.093 30.36 6.527-19.427c.512-1.523-.352-3.162-1.927-3.657-1.575-.494-3.27.34-3.781 1.863l-6.527 19.427c-.512 1.523.352 3.162 1.926 3.657 1.575.495 3.27-.34 3.782-1.863z"/><path fill="url(#d)" fill-opacity=".8" d="m30.093 30.36 6.527-19.427c.512-1.523-.352-3.162-1.927-3.657-1.575-.494-3.27.34-3.781 1.863l-6.527 19.427c-.512 1.523.352 3.162 1.926 3.657 1.575.495 3.27-.34 3.782-1.863z"/><path fill="url(#e)" d="m30.093 30.36 6.527-19.427c.512-1.523-.352-3.162-1.927-3.657-1.575-.494-3.27.34-3.781 1.863l-6.527 19.427c-.512 1.523.352 3.162 1.926 3.657 1.575.495 3.27-.34 3.782-1.863z"/><path fill="url(#f)" d="m30.093 30.36 6.527-19.427c.512-1.523-.352-3.162-1.927-3.657-1.575-.494-3.27.34-3.781 1.863l-6.527 19.427c-.512 1.523.352 3.162 1.926 3.657 1.575.495 3.27-.34 3.782-1.863z"/><path fill="url(#g)" d="m30.093 30.36 6.527-19.427c.512-1.523-.352-3.162-1.927-3.657-1.575-.494-3.27.34-3.781 1.863l-6.527 19.427c-.512 1.523.352 3.162 1.926 3.657 1.575.495 3.27-.34 3.782-1.863z"/><path fill="#E63CFE" d="M19.337 18.846c.74 0 1.287.42 1.752.945.518.586.931 1.312 1.282 2.082 1.578 3.46 1.874 7.789 1.874 7.789.113 1.598 1.547 2.806 3.199 2.697 1.652-.11 2.901-1.497 2.788-3.095 0 0-.396-5.406-2.37-9.733-1.691-3.71-4.556-6.49-8.525-6.49-3.968 0-6.833 2.78-8.525 6.49-1.973 4.327-2.37 9.734-2.37 9.734-.113 1.598 1.136 2.984 2.789 3.094 1.652.11 3.086-1.099 3.2-2.697 0 0 .295-4.328 1.873-7.788.35-.77.764-1.497 1.282-2.083.465-.526 1.01-.945 1.75-.945z"/><path fill="url(#h)" d="M19.337 18.846c.74 0 1.287.42 1.752.945.518.586.931 1.312 1.282 2.082 1.578 3.46 1.874 7.789 1.874 7.789.113 1.598 1.547 2.806 3.199 2.697 1.652-.11 2.901-1.497 2.788-3.095 0 0-.396-5.406-2.37-9.733-1.691-3.71-4.556-6.49-8.525-6.49-3.968 0-6.833 2.78-8.525 6.49-1.973 4.327-2.37 9.734-2.37 9.734-.113 1.598 1.136 2.984 2.789 3.094 1.652.11 3.086-1.099 3.2-2.697 0 0 .295-4.328 1.873-7.788.35-.77.764-1.497 1.282-2.083.465-.526 1.01-.945 1.75-.945z"/><path fill="url(#i)" d="M19.337 18.846c.74 0 1.287.42 1.752.945.518.586.931 1.312 1.282 2.082 1.578 3.46 1.874 7.789 1.874 7.789.113 1.598 1.547 2.806 3.199 2.697 1.652-.11 2.901-1.497 2.788-3.095 0 0-.396-5.406-2.37-9.733-1.691-3.71-4.556-6.49-8.525-6.49-3.968 0-6.833 2.78-8.525 6.49-1.973 4.327-2.37 9.734-2.37 9.734-.113 1.598 1.136 2.984 2.789 3.094 1.652.11 3.086-1.099 3.2-2.697 0 0 .295-4.328 1.873-7.788.35-.77.764-1.497 1.282-2.083.465-.526 1.01-.945 1.75-.945z"/><path fill="url(#j)" d="M19.337 18.846c.74 0 1.287.42 1.752.945.518.586.931 1.312 1.282 2.082 1.578 3.46 1.874 7.789 1.874 7.789.113 1.598 1.547 2.806 3.199 2.697 1.652-.11 2.901-1.497 2.788-3.095 0 0-.396-5.406-2.37-9.733-1.691-3.71-4.556-6.49-8.525-6.49-3.968 0-6.833 2.78-8.525 6.49-1.973 4.327-2.37 9.734-2.37 9.734-.113 1.598 1.136 2.984 2.789 3.094 1.652.11 3.086-1.099 3.2-2.697 0 0 .295-4.328 1.873-7.788.35-.77.764-1.497 1.282-2.083.465-.526 1.01-.945 1.75-.945z"/><path fill="url(#k)" d="M19.337 18.846c.74 0 1.287.42 1.752.945.518.586.931 1.312 1.282 2.082 1.578 3.46 1.874 7.789 1.874 7.789.113 1.598 1.547 2.806 3.199 2.697 1.652-.11 2.901-1.497 2.788-3.095 0 0-.396-5.406-2.37-9.733-1.691-3.71-4.556-6.49-8.525-6.49-3.968 0-6.833 2.78-8.525 6.49-1.973 4.327-2.37 9.734-2.37 9.734-.113 1.598 1.136 2.984 2.789 3.094 1.652.11 3.086-1.099 3.2-2.697 0 0 .295-4.328 1.873-7.788.35-.77.764-1.497 1.282-2.083.465-.526 1.01-.945 1.75-.945z"/><path fill="url(#l)" d="M19.337 18.846c.74 0 1.287.42 1.752.945.518.586.931 1.312 1.282 2.082 1.578 3.46 1.874 7.789 1.874 7.789.113 1.598 1.547 2.806 3.199 2.697 1.652-.11 2.901-1.497 2.788-3.095 0 0-.396-5.406-2.37-9.733-1.691-3.71-4.556-6.49-8.525-6.49-3.968 0-6.833 2.78-8.525 6.49-1.973 4.327-2.37 9.734-2.37 9.734-.113 1.598 1.136 2.984 2.789 3.094 1.652.11 3.086-1.099 3.2-2.697 0 0 .295-4.328 1.873-7.788.35-.77.764-1.497 1.282-2.083.465-.526 1.01-.945 1.75-.945z"/><path fill="url(#m)" d="M19.337 18.846c.74 0 1.287.42 1.752.945.518.586.931 1.312 1.282 2.082 1.578 3.46 1.874 7.789 1.874 7.789.113 1.598 1.547 2.806 3.199 2.697 1.652-.11 2.901-1.497 2.788-3.095 0 0-.396-5.406-2.37-9.733-1.691-3.71-4.556-6.49-8.525-6.49-3.968 0-6.833 2.78-8.525 6.49-1.973 4.327-2.37 9.734-2.37 9.734-.113 1.598 1.136 2.984 2.789 3.094 1.652.11 3.086-1.099 3.2-2.697 0 0 .295-4.328 1.873-7.788.35-.77.764-1.497 1.282-2.083.465-.526 1.01-.945 1.75-.945z"/><path fill="url(#n)" d="M19.337 18.846c.74 0 1.287.42 1.752.945.518.586.931 1.312 1.282 2.082 1.578 3.46 1.874 7.789 1.874 7.789.113 1.598 1.547 2.806 3.199 2.697 1.652-.11 2.901-1.497 2.788-3.095 0 0-.396-5.406-2.37-9.733-1.691-3.71-4.556-6.49-8.525-6.49-3.968 0-6.833 2.78-8.525 6.49-1.973 4.327-2.37 9.734-2.37 9.734-.113 1.598 1.136 2.984 2.789 3.094 1.652.11 3.086-1.099 3.2-2.697 0 0 .295-4.328 1.873-7.788.35-.77.764-1.497 1.282-2.083.465-.526 1.01-.945 1.75-.945z"/><path fill="url(#o)" d="M19.337 18.846c.74 0 1.287.42 1.752.945.518.586.931 1.312 1.282 2.082 1.578 3.46 1.874 7.789 1.874 7.789.113 1.598 1.547 2.806 3.199 2.697 1.652-.11 2.901-1.497 2.788-3.095 0 0-.396-5.406-2.37-9.733-1.691-3.71-4.556-6.49-8.525-6.49-3.968 0-6.833 2.78-8.525 6.49-1.973 4.327-2.37 9.734-2.37 9.734-.113 1.598 1.136 2.984 2.789 3.094 1.652.11 3.086-1.099 3.2-2.697 0 0 .295-4.328 1.873-7.788.35-.77.764-1.497 1.282-2.083.465-.526 1.01-.945 1.75-.945z"/><path fill="url(#p)" d="M14.289 28.566 7.762 9.139C7.25 7.616 5.556 6.78 3.98 7.275c-1.575.496-2.44 2.134-1.927 3.657L8.58 30.36c.512 1.524 2.206 2.36 3.781 1.864 1.575-.495 2.439-2.134 1.927-3.657z"/><path fill="url(#q)" d="M14.289 28.566 7.762 9.139C7.25 7.616 5.556 6.78 3.98 7.275c-1.575.496-2.44 2.134-1.927 3.657L8.58 30.36c.512 1.524 2.206 2.36 3.781 1.864 1.575-.495 2.439-2.134 1.927-3.657z"/><path fill="url(#r)" d="M14.289 28.566 7.762 9.139C7.25 7.616 5.556 6.78 3.98 7.275c-1.575.496-2.44 2.134-1.927 3.657L8.58 30.36c.512 1.524 2.206 2.36 3.781 1.864 1.575-.495 2.439-2.134 1.927-3.657z"/><path fill="url(#s)" d="M14.289 28.566 7.762 9.139C7.25 7.616 5.556 6.78 3.98 7.275c-1.575.496-2.44 2.134-1.927 3.657L8.58 30.36c.512 1.524 2.206 2.36 3.781 1.864 1.575-.495 2.439-2.134 1.927-3.657z"/><path fill="url(#t)" d="M14.289 28.566 7.762 9.139C7.25 7.616 5.556 6.78 3.98 7.275c-1.575.496-2.44 2.134-1.927 3.657L8.58 30.36c.512 1.524 2.206 2.36 3.781 1.864 1.575-.495 2.439-2.134 1.927-3.657z"/></g><defs><radialGradient id="e" cx="0" cy="0" r="1" gradientTransform="rotate(-63.358 32.242 -10.746) scale(17.6294 18.015)" gradientUnits="userSpaceOnUse"><stop offset=".832" stop-color="#4A4EFA" stop-opacity="0"/><stop offset="1" stop-color="#4A4EFA" stop-opacity=".75"/></radialGradient><radialGradient id="f" cx="0" cy="0" r="1" gradientTransform="matrix(4.04438 0 0 8.34751 27.037 21.736)" gradientUnits="userSpaceOnUse"><stop offset=".169" stop-color="#11417A"/><stop offset=".926" stop-color="#4069D4" stop-opacity="0"/></radialGradient><radialGradient id="g" cx="0" cy="0" r="1" gradientTransform="matrix(0 -12.9104 6.41121 0 31.718 32.366)" gradientUnits="userSpaceOnUse"><stop offset=".349" stop-color="#E63CFE"/><stop offset="1" stop-color="#E63CFE" stop-opacity="0"/></radialGradient><radialGradient id="h" cx="0" cy="0" r="1" gradientTransform="matrix(1.0172 -13.26516 12.19958 .9355 18.32 23.23)" gradientUnits="userSpaceOnUse"><stop stop-color="#39FBBB" stop-opacity=".5"/><stop offset=".689" stop-color="#39FBBB"/><stop offset="1" stop-color="#39FBBB" stop-opacity="0"/></radialGradient><radialGradient id="i" cx="0" cy="0" r="1" gradientTransform="matrix(-17.81596 -26.85583 6.62799 -4.39696 37.957 30.72)" gradientUnits="userSpaceOnUse"><stop stop-color="#E63CFE"/><stop offset="1" stop-color="#E63CFE" stop-opacity="0"/></radialGradient><radialGradient id="j" cx="0" cy="0" r="1" gradientTransform="rotate(-84.841 24.392 3.344) scale(14.3531 12.786)" gradientUnits="userSpaceOnUse"><stop offset=".557" stop-color="#4A4EFA"/><stop offset=".935" stop-color="#4A4EFA" stop-opacity="0"/></radialGradient><radialGradient id="k" cx="0" cy="0" r="1" gradientTransform="matrix(5.65624 -13.95562 8.54595 3.46369 14.836 31.679)" gradientUnits="userSpaceOnUse"><stop offset=".613" stop-color="#E63CFE"/><stop offset="1" stop-color="#E63CFE" stop-opacity="0"/></radialGradient><radialGradient id="l" cx="0" cy="0" r="1" gradientTransform="matrix(-19.2372 1.22244 -2.98335 -46.9482 29.86 21.53)" gradientUnits="userSpaceOnUse"><stop offset=".814" stop-color="#4A98D0" stop-opacity="0"/><stop offset=".973" stop-color="#11417A"/></radialGradient><radialGradient id="m" cx="0" cy="0" r="1" gradientTransform="matrix(0 -13.3348 11.4643 0 13.678 32.365)" gradientUnits="userSpaceOnUse"><stop offset=".458" stop-color="#FFAE3C"/><stop offset="1" stop-color="#FFAE3C" stop-opacity="0"/></radialGradient><radialGradient id="n" cx="0" cy="0" r="1" gradientTransform="matrix(0 -12.0194 12.4541 0 30.433 32.365)" gradientUnits="userSpaceOnUse"><stop offset=".192" stop-color="#E63CFE"/><stop offset="1" stop-color="#E63CFE" stop-opacity="0"/></radialGradient><radialGradient id="o" cx="0" cy="0" r="1" gradientTransform="matrix(0 -9.04456 4.45171 0 23.126 32.365)" gradientUnits="userSpaceOnUse"><stop offset=".174" stop-color="#FFAE3C"/><stop offset="1" stop-color="#FFAE3C" stop-opacity="0"/></radialGradient><radialGradient id="q" cx="0" cy="0" r="1" gradientTransform="rotate(161.659 2.691 8.05) scale(4.18927 19.8865)" gradientUnits="userSpaceOnUse"><stop offset=".12" stop-color="#4A4EFA"/><stop offset="1" stop-color="#4A4EFA" stop-opacity="0"/></radialGradient><radialGradient id="s" cx="0" cy="0" r="1" gradientTransform="matrix(0 -13.037 14.7571 0 14.436 32.366)" gradientUnits="userSpaceOnUse"><stop offset=".465" stop-color="#FFAE3C"/><stop offset=".926" stop-color="#FFAE3C" stop-opacity="0"/></radialGradient><radialGradient id="t" cx="0" cy="0" r="1" gradientTransform="matrix(0 -28.5256 29.5571 0 14.436 32.366)" gradientUnits="userSpaceOnUse"><stop offset=".844" stop-color="#E63CFE" stop-opacity="0"/><stop offset="1" stop-color="#E63CFE"/></radialGradient><linearGradient id="b" x1="40.111" x2="30.953" y1=".769" y2="31.454" gradientUnits="userSpaceOnUse"><stop stop-color="#4A4EFA"/><stop offset=".549" stop-color="#E63CFE"/></linearGradient><linearGradient id="c" x1="27.835" x2="33.334" y1="18.352" y2="20.196" gradientUnits="userSpaceOnUse"><stop offset=".16" stop-color="#4A4EFA"/><stop offset=".946" stop-color="#4A4EFA" stop-opacity="0"/></linearGradient><linearGradient id="d" x1="28.674" x2="32.13" y1="15.787" y2="16.932" gradientUnits="userSpaceOnUse"><stop stop-color="#39FBBB"/><stop offset="1" stop-color="#39FBBB" stop-opacity="0"/></linearGradient><linearGradient id="p" x1=".881" x2="8.781" y1="8.345" y2="33.812" gradientUnits="userSpaceOnUse"><stop offset=".17" stop-color="#E63CFE"/><stop offset=".709" stop-color="#FFAE3C"/></linearGradient><linearGradient id="r" x1="11.477" x2="10.305" y1="20.171" y2="20.569" gradientUnits="userSpaceOnUse"><stop stop-color="#E63CFE" stop-opacity=".33"/><stop offset="1" stop-color="#E63CFE" stop-opacity="0"/></linearGradient><clipPath id="a"><path fill="#fff" d="M1.906 7.133h34.86v25.353H1.906z"/></clipPath></defs></svg>